<?xml version="1.0" encoding="utf-8" standalone="no"?>
<!DOCTYPE svg PUBLIC "-//W3C//DTD SVG 1.1//EN"
  "http://www.w3.org/Graphics/SVG/1.1/DTD/svg11.dtd">
<!-- Created with matplotlib (https://matplotlib.org/) -->
<svg height="282.00125pt" version="1.1" viewBox="0 0 638.809062 282.00125" width="638.809062pt" xmlns="http://www.w3.org/2000/svg" xmlns:xlink="http://www.w3.org/1999/xlink">
 <defs>
  <style type="text/css">
*{stroke-linecap:butt;stroke-linejoin:round;}
  </style>
 </defs>
 <g id="figure_1">
  <g id="patch_1">
   <path d="M 0 282.00125 
L 638.809062 282.00125 
L 638.809062 0 
L 0 0 
z
" style="fill:#ffffff;"/>
  </g>
  <g id="axes_1">
   <g id="patch_2">
    <path d="M 62.156563 228.96 
L 620.156563 228.96 
L 620.156563 7.2 
L 62.156563 7.2 
z
" style="fill:#ffffff;"/>
   </g>
   <g id="PolyCollection_1">
    <path clip-path="url(#pc5ac42a5ab)" d="M 62.156562 15.621266 
L 62.156562 26.84962 
L 66.730333 26.84962 
L 71.304103 26.84962 
L 75.877874 26.84962 
L 80.451644 26.84962 
L 85.025415 26.84962 
L 89.599185 26.84962 
L 94.172956 26.84962 
L 98.746726 26.84962 
L 103.320497 26.84962 
L 107.894267 26.84962 
L 112.468038 26.84962 
L 117.041808 26.84962 
L 121.615579 26.84962 
L 126.189349 26.84962 
L 130.76312 26.84962 
L 135.33689 26.84962 
L 139.910661 26.84962 
L 144.484431 26.84962 
L 149.058202 26.84962 
L 153.631972 26.84962 
L 158.205743 26.84962 
L 162.779513 26.84962 
L 167.353284 26.84962 
L 171.927054 26.84962 
L 176.500825 26.84962 
L 181.074595 26.84962 
L 185.648366 26.84962 
L 190.222136 26.84962 
L 194.795907 26.84962 
L 199.369677 26.84962 
L 203.943448 26.84962 
L 208.517218 26.84962 
L 213.090989 26.84962 
L 217.664759 26.84962 
L 222.23853 26.84962 
L 226.8123 26.84962 
L 231.386071 26.84962 
L 235.959841 26.84962 
L 240.533612 26.84962 
L 245.107382 26.84962 
L 249.681153 26.84962 
L 254.254923 26.84962 
L 258.828694 26.84962 
L 263.402464 26.84962 
L 267.976235 26.84962 
L 272.550005 26.84962 
L 277.123776 26.84962 
L 281.697546 26.84962 
L 286.271317 26.84962 
L 290.845087 26.84962 
L 295.418858 26.84962 
L 299.992628 26.84962 
L 304.566399 26.84962 
L 309.140169 26.84962 
L 313.71394 26.84962 
L 318.28771 26.84962 
L 322.861481 26.84962 
L 327.435251 26.84962 
L 332.009022 26.84962 
L 336.582792 26.84962 
L 341.156562 26.84962 
L 345.730333 26.84962 
L 350.304103 26.84962 
L 354.877874 26.84962 
L 359.451644 26.84962 
L 364.025415 26.84962 
L 368.599185 26.84962 
L 373.172956 26.84962 
L 377.746726 26.84962 
L 382.320497 26.84962 
L 386.894267 26.84962 
L 391.468038 26.84962 
L 396.041808 26.84962 
L 400.615579 26.84962 
L 405.189349 26.84962 
L 409.76312 26.84962 
L 414.33689 26.84962 
L 418.910661 26.84962 
L 423.484431 26.84962 
L 428.058202 26.84962 
L 432.631972 26.84962 
L 437.205743 26.84962 
L 441.779513 26.84962 
L 446.353284 26.84962 
L 450.927054 26.84962 
L 455.500825 26.84962 
L 460.074595 26.84962 
L 464.648366 26.84962 
L 469.222136 26.84962 
L 473.795907 26.84962 
L 478.369677 26.84962 
L 482.943448 26.84962 
L 487.517218 26.84962 
L 492.090989 26.84962 
L 496.664759 26.84962 
L 501.23853 26.84962 
L 505.8123 26.84962 
L 510.386071 26.84962 
L 514.959841 26.84962 
L 519.533612 26.84962 
L 524.107382 26.84962 
L 528.681153 26.84962 
L 533.254923 26.84962 
L 537.828694 26.84962 
L 542.402464 26.84962 
L 546.976235 26.84962 
L 551.550005 26.84962 
L 556.123776 26.84962 
L 560.697546 26.84962 
L 565.271317 26.84962 
L 569.845087 26.84962 
L 574.418858 26.84962 
L 578.992628 26.84962 
L 583.566399 26.84962 
L 588.140169 26.84962 
L 592.71394 26.84962 
L 597.28771 26.84962 
L 601.861481 26.84962 
L 606.435251 26.84962 
L 611.009022 26.84962 
L 615.582792 26.84962 
L 615.582792 15.621266 
L 615.582792 15.621266 
L 611.009022 15.621266 
L 606.435251 15.621266 
L 601.861481 15.621266 
L 597.28771 15.621266 
L 592.71394 15.621266 
L 588.140169 15.621266 
L 583.566399 15.621266 
L 578.992628 15.621266 
L 574.418858 15.621266 
L 569.845087 15.621266 
L 565.271317 15.621266 
L 560.697546 15.621266 
L 556.123776 15.621266 
L 551.550005 15.621266 
L 546.976235 15.621266 
L 542.402464 15.621266 
L 537.828694 15.621266 
L 533.254923 15.621266 
L 528.681153 15.621266 
L 524.107382 15.621266 
L 519.533612 15.621266 
L 514.959841 15.621266 
L 510.386071 15.621266 
L 505.8123 15.621266 
L 501.23853 15.621266 
L 496.664759 15.621266 
L 492.090989 15.621266 
L 487.517218 15.621266 
L 482.943448 15.621266 
L 478.369677 15.621266 
L 473.795907 15.621266 
L 469.222136 15.621266 
L 464.648366 15.621266 
L 460.074595 15.621266 
L 455.500825 15.621266 
L 450.927054 15.621266 
L 446.353284 15.621266 
L 441.779513 15.621266 
L 437.205743 15.621266 
L 432.631972 15.621266 
L 428.058202 15.621266 
L 423.484431 15.621266 
L 418.910661 15.621266 
L 414.33689 15.621266 
L 409.76312 15.621266 
L 405.189349 15.621266 
L 400.615579 15.621266 
L 396.041808 15.621266 
L 391.468038 15.621266 
L 386.894267 15.621266 
L 382.320497 15.621266 
L 377.746726 15.621266 
L 373.172956 15.621266 
L 368.599185 15.621266 
L 364.025415 15.621266 
L 359.451644 15.621266 
L 354.877874 15.621266 
L 350.304103 15.621266 
L 345.730333 15.621266 
L 341.156562 15.621266 
L 336.582792 15.621266 
L 332.009022 15.621266 
L 327.435251 15.621266 
L 322.861481 15.621266 
L 318.28771 15.621266 
L 313.71394 15.621266 
L 309.140169 15.621266 
L 304.566399 15.621266 
L 299.992628 15.621266 
L 295.418858 15.621266 
L 290.845087 15.621266 
L 286.271317 15.621266 
L 281.697546 15.621266 
L 277.123776 15.621266 
L 272.550005 15.621266 
L 267.976235 15.621266 
L 263.402464 15.621266 
L 258.828694 15.621266 
L 254.254923 15.621266 
L 249.681153 15.621266 
L 245.107382 15.621266 
L 240.533612 15.621266 
L 235.959841 15.621266 
L 231.386071 15.621266 
L 226.8123 15.621266 
L 222.23853 15.621266 
L 217.664759 15.621266 
L 213.090989 15.621266 
L 208.517218 15.621266 
L 203.943448 15.621266 
L 199.369677 15.621266 
L 194.795907 15.621266 
L 190.222136 15.621266 
L 185.648366 15.621266 
L 181.074595 15.621266 
L 176.500825 15.621266 
L 171.927054 15.621266 
L 167.353284 15.621266 
L 162.779513 15.621266 
L 158.205743 15.621266 
L 153.631972 15.621266 
L 149.058202 15.621266 
L 144.484431 15.621266 
L 139.910661 15.621266 
L 135.33689 15.621266 
L 130.76312 15.621266 
L 126.189349 15.621266 
L 121.615579 15.621266 
L 117.041808 15.621266 
L 112.468038 15.621266 
L 107.894267 15.621266 
L 103.320497 15.621266 
L 98.746726 15.621266 
L 94.172956 15.621266 
L 89.599185 15.621266 
L 85.025415 15.621266 
L 80.451644 15.621266 
L 75.877874 15.621266 
L 71.304103 15.621266 
L 66.730333 15.621266 
L 62.156562 15.621266 
z
" style="fill:#008000;fill-opacity:0.1;"/>
   </g>
   <g id="matplotlib.axis_1">
    <g id="xtick_1">
     <g id="line2d_1">
      <defs>
       <path d="M 0 0 
L 0 3.5 
" id="m1ef20bb15c" style="stroke:#000000;stroke-width:0.8;"/>
      </defs>
      <g>
       <use style="stroke:#000000;stroke-width:0.8;" x="71.304103" xlink:href="#m1ef20bb15c" y="228.96"/>
      </g>
     </g>
     <g id="text_1">
      <!-- 32 -->
      <defs>
       <path d="M 40.578125 39.3125 
Q 47.65625 37.796875 51.625 33 
Q 55.609375 28.21875 55.609375 21.1875 
Q 55.609375 10.40625 48.1875 4.484375 
Q 40.765625 -1.421875 27.09375 -1.421875 
Q 22.515625 -1.421875 17.65625 -0.515625 
Q 12.796875 0.390625 7.625 2.203125 
L 7.625 11.71875 
Q 11.71875 9.328125 16.59375 8.109375 
Q 21.484375 6.890625 26.8125 6.890625 
Q 36.078125 6.890625 40.9375 10.546875 
Q 45.796875 14.203125 45.796875 21.1875 
Q 45.796875 27.640625 41.28125 31.265625 
Q 36.765625 34.90625 28.71875 34.90625 
L 20.21875 34.90625 
L 20.21875 43.015625 
L 29.109375 43.015625 
Q 36.375 43.015625 40.234375 45.921875 
Q 44.09375 48.828125 44.09375 54.296875 
Q 44.09375 59.90625 40.109375 62.90625 
Q 36.140625 65.921875 28.71875 65.921875 
Q 24.65625 65.921875 20.015625 65.03125 
Q 15.375 64.15625 9.8125 62.3125 
L 9.8125 71.09375 
Q 15.4375 72.65625 20.34375 73.4375 
Q 25.25 74.21875 29.59375 74.21875 
Q 40.828125 74.21875 47.359375 69.109375 
Q 53.90625 64.015625 53.90625 55.328125 
Q 53.90625 49.265625 50.4375 45.09375 
Q 46.96875 40.921875 40.578125 39.3125 
z
" id="DejaVuSans-51"/>
       <path d="M 19.1875 8.296875 
L 53.609375 8.296875 
L 53.609375 0 
L 7.328125 0 
L 7.328125 8.296875 
Q 12.9375 14.109375 22.625 23.890625 
Q 32.328125 33.6875 34.8125 36.53125 
Q 39.546875 41.84375 41.421875 45.53125 
Q 43.3125 49.21875 43.3125 52.78125 
Q 43.3125 58.59375 39.234375 62.25 
Q 35.15625 65.921875 28.609375 65.921875 
Q 23.96875 65.921875 18.8125 64.3125 
Q 13.671875 62.703125 7.8125 59.421875 
L 7.8125 69.390625 
Q 13.765625 71.78125 18.9375 73 
Q 24.125 74.21875 28.421875 74.21875 
Q 39.75 74.21875 46.484375 68.546875 
Q 53.21875 62.890625 53.21875 53.421875 
Q 53.21875 48.921875 51.53125 44.890625 
Q 49.859375 40.875 45.40625 35.40625 
Q 44.1875 33.984375 37.640625 27.21875 
Q 31.109375 20.453125 19.1875 8.296875 
z
" id="DejaVuSans-50"/>
      </defs>
      <g transform="translate(59.851603 249.637187)scale(0.18 -0.18)">
       <use xlink:href="#DejaVuSans-51"/>
       <use x="63.623047" xlink:href="#DejaVuSans-50"/>
      </g>
     </g>
    </g>
    <g id="xtick_2">
     <g id="line2d_2">
      <g>
       <use style="stroke:#000000;stroke-width:0.8;" x="162.779513" xlink:href="#m1ef20bb15c" y="228.96"/>
      </g>
     </g>
     <g id="text_2">
      <!-- 33 -->
      <g transform="translate(151.327013 249.637187)scale(0.18 -0.18)">
       <use xlink:href="#DejaVuSans-51"/>
       <use x="63.623047" xlink:href="#DejaVuSans-51"/>
      </g>
     </g>
    </g>
    <g id="xtick_3">
     <g id="line2d_3">
      <g>
       <use style="stroke:#000000;stroke-width:0.8;" x="254.254923" xlink:href="#m1ef20bb15c" y="228.96"/>
      </g>
     </g>
     <g id="text_3">
      <!-- 34 -->
      <defs>
       <path d="M 37.796875 64.3125 
L 12.890625 25.390625 
L 37.796875 25.390625 
z
M 35.203125 72.90625 
L 47.609375 72.90625 
L 47.609375 25.390625 
L 58.015625 25.390625 
L 58.015625 17.1875 
L 47.609375 17.1875 
L 47.609375 0 
L 37.796875 0 
L 37.796875 17.1875 
L 4.890625 17.1875 
L 4.890625 26.703125 
z
" id="DejaVuSans-52"/>
      </defs>
      <g transform="translate(242.802423 249.637187)scale(0.18 -0.18)">
       <use xlink:href="#DejaVuSans-51"/>
       <use x="63.623047" xlink:href="#DejaVuSans-52"/>
      </g>
     </g>
    </g>
    <g id="xtick_4">
     <g id="line2d_4">
      <g>
       <use style="stroke:#000000;stroke-width:0.8;" x="345.730333" xlink:href="#m1ef20bb15c" y="228.96"/>
      </g>
     </g>
     <g id="text_4">
      <!-- 35 -->
      <defs>
       <path d="M 10.796875 72.90625 
L 49.515625 72.90625 
L 49.515625 64.59375 
L 19.828125 64.59375 
L 19.828125 46.734375 
Q 21.96875 47.46875 24.109375 47.828125 
Q 26.265625 48.1875 28.421875 48.1875 
Q 40.625 48.1875 47.75 41.5 
Q 54.890625 34.8125 54.890625 23.390625 
Q 54.890625 11.625 47.5625 5.09375 
Q 40.234375 -1.421875 26.90625 -1.421875 
Q 22.3125 -1.421875 17.546875 -0.640625 
Q 12.796875 0.140625 7.71875 1.703125 
L 7.71875 11.625 
Q 12.109375 9.234375 16.796875 8.0625 
Q 21.484375 6.890625 26.703125 6.890625 
Q 35.15625 6.890625 40.078125 11.328125 
Q 45.015625 15.765625 45.015625 23.390625 
Q 45.015625 31 40.078125 35.4375 
Q 35.15625 39.890625 26.703125 39.890625 
Q 22.75 39.890625 18.8125 39.015625 
Q 14.890625 38.140625 10.796875 36.28125 
z
" id="DejaVuSans-53"/>
      </defs>
      <g transform="translate(334.277833 249.637187)scale(0.18 -0.18)">
       <use xlink:href="#DejaVuSans-51"/>
       <use x="63.623047" xlink:href="#DejaVuSans-53"/>
      </g>
     </g>
    </g>
    <g id="xtick_5">
     <g id="line2d_5">
      <g>
       <use style="stroke:#000000;stroke-width:0.8;" x="437.205743" xlink:href="#m1ef20bb15c" y="228.96"/>
      </g>
     </g>
     <g id="text_5">
      <!-- 36 -->
      <defs>
       <path d="M 33.015625 40.375 
Q 26.375 40.375 22.484375 35.828125 
Q 18.609375 31.296875 18.609375 23.390625 
Q 18.609375 15.53125 22.484375 10.953125 
Q 26.375 6.390625 33.015625 6.390625 
Q 39.65625 6.390625 43.53125 10.953125 
Q 47.40625 15.53125 47.40625 23.390625 
Q 47.40625 31.296875 43.53125 35.828125 
Q 39.65625 40.375 33.015625 40.375 
z
M 52.59375 71.296875 
L 52.59375 62.3125 
Q 48.875 64.0625 45.09375 64.984375 
Q 41.3125 65.921875 37.59375 65.921875 
Q 27.828125 65.921875 22.671875 59.328125 
Q 17.53125 52.734375 16.796875 39.40625 
Q 19.671875 43.65625 24.015625 45.921875 
Q 28.375 48.1875 33.59375 48.1875 
Q 44.578125 48.1875 50.953125 41.515625 
Q 57.328125 34.859375 57.328125 23.390625 
Q 57.328125 12.15625 50.6875 5.359375 
Q 44.046875 -1.421875 33.015625 -1.421875 
Q 20.359375 -1.421875 13.671875 8.265625 
Q 6.984375 17.96875 6.984375 36.375 
Q 6.984375 53.65625 15.1875 63.9375 
Q 23.390625 74.21875 37.203125 74.21875 
Q 40.921875 74.21875 44.703125 73.484375 
Q 48.484375 72.75 52.59375 71.296875 
z
" id="DejaVuSans-54"/>
      </defs>
      <g transform="translate(425.753243 249.637187)scale(0.18 -0.18)">
       <use xlink:href="#DejaVuSans-51"/>
       <use x="63.623047" xlink:href="#DejaVuSans-54"/>
      </g>
     </g>
    </g>
    <g id="xtick_6">
     <g id="line2d_6">
      <g>
       <use style="stroke:#000000;stroke-width:0.8;" x="528.681153" xlink:href="#m1ef20bb15c" y="228.96"/>
      </g>
     </g>
     <g id="text_6">
      <!-- 37 -->
      <defs>
       <path d="M 8.203125 72.90625 
L 55.078125 72.90625 
L 55.078125 68.703125 
L 28.609375 0 
L 18.3125 0 
L 43.21875 64.59375 
L 8.203125 64.59375 
z
" id="DejaVuSans-55"/>
      </defs>
      <g transform="translate(517.228653 249.637187)scale(0.18 -0.18)">
       <use xlink:href="#DejaVuSans-51"/>
       <use x="63.623047" xlink:href="#DejaVuSans-55"/>
      </g>
     </g>
    </g>
    <g id="xtick_7">
     <g id="line2d_7">
      <g>
       <use style="stroke:#000000;stroke-width:0.8;" x="620.156562" xlink:href="#m1ef20bb15c" y="228.96"/>
      </g>
     </g>
     <g id="text_7">
      <!-- 38 -->
      <defs>
       <path d="M 31.78125 34.625 
Q 24.75 34.625 20.71875 30.859375 
Q 16.703125 27.09375 16.703125 20.515625 
Q 16.703125 13.921875 20.71875 10.15625 
Q 24.75 6.390625 31.78125 6.390625 
Q 38.8125 6.390625 42.859375 10.171875 
Q 46.921875 13.96875 46.921875 20.515625 
Q 46.921875 27.09375 42.890625 30.859375 
Q 38.875 34.625 31.78125 34.625 
z
M 21.921875 38.8125 
Q 15.578125 40.375 12.03125 44.71875 
Q 8.5 49.078125 8.5 55.328125 
Q 8.5 64.0625 14.71875 69.140625 
Q 20.953125 74.21875 31.78125 74.21875 
Q 42.671875 74.21875 48.875 69.140625 
Q 55.078125 64.0625 55.078125 55.328125 
Q 55.078125 49.078125 51.53125 44.71875 
Q 48 40.375 41.703125 38.8125 
Q 48.828125 37.15625 52.796875 32.3125 
Q 56.78125 27.484375 56.78125 20.515625 
Q 56.78125 9.90625 50.3125 4.234375 
Q 43.84375 -1.421875 31.78125 -1.421875 
Q 19.734375 -1.421875 13.25 4.234375 
Q 6.78125 9.90625 6.78125 20.515625 
Q 6.78125 27.484375 10.78125 32.3125 
Q 14.796875 37.15625 21.921875 38.8125 
z
M 18.3125 54.390625 
Q 18.3125 48.734375 21.84375 45.5625 
Q 25.390625 42.390625 31.78125 42.390625 
Q 38.140625 42.390625 41.71875 45.5625 
Q 45.3125 48.734375 45.3125 54.390625 
Q 45.3125 60.0625 41.71875 63.234375 
Q 38.140625 66.40625 31.78125 66.40625 
Q 25.390625 66.40625 21.84375 63.234375 
Q 18.3125 60.0625 18.3125 54.390625 
z
" id="DejaVuSans-56"/>
      </defs>
      <g transform="translate(608.704062 249.637187)scale(0.18 -0.18)">
       <use xlink:href="#DejaVuSans-51"/>
       <use x="63.623047" xlink:href="#DejaVuSans-56"/>
      </g>
     </g>
    </g>
    <g id="text_8">
     <!-- Time [sec] -->
     <defs>
      <path d="M -0.296875 72.90625 
L 61.375 72.90625 
L 61.375 64.59375 
L 35.5 64.59375 
L 35.5 0 
L 25.59375 0 
L 25.59375 64.59375 
L -0.296875 64.59375 
z
" id="DejaVuSans-84"/>
      <path d="M 9.421875 54.6875 
L 18.40625 54.6875 
L 18.40625 0 
L 9.421875 0 
z
M 9.421875 75.984375 
L 18.40625 75.984375 
L 18.40625 64.59375 
L 9.421875 64.59375 
z
" id="DejaVuSans-105"/>
      <path d="M 52 44.1875 
Q 55.375 50.25 60.0625 53.125 
Q 64.75 56 71.09375 56 
Q 79.640625 56 84.28125 50.015625 
Q 88.921875 44.046875 88.921875 33.015625 
L 88.921875 0 
L 79.890625 0 
L 79.890625 32.71875 
Q 79.890625 40.578125 77.09375 44.375 
Q 74.3125 48.1875 68.609375 48.1875 
Q 61.625 48.1875 57.5625 43.546875 
Q 53.515625 38.921875 53.515625 30.90625 
L 53.515625 0 
L 44.484375 0 
L 44.484375 32.71875 
Q 44.484375 40.625 41.703125 44.40625 
Q 38.921875 48.1875 33.109375 48.1875 
Q 26.21875 48.1875 22.15625 43.53125 
Q 18.109375 38.875 18.109375 30.90625 
L 18.109375 0 
L 9.078125 0 
L 9.078125 54.6875 
L 18.109375 54.6875 
L 18.109375 46.1875 
Q 21.1875 51.21875 25.484375 53.609375 
Q 29.78125 56 35.6875 56 
Q 41.65625 56 45.828125 52.96875 
Q 50 49.953125 52 44.1875 
z
" id="DejaVuSans-109"/>
      <path d="M 56.203125 29.59375 
L 56.203125 25.203125 
L 14.890625 25.203125 
Q 15.484375 15.921875 20.484375 11.0625 
Q 25.484375 6.203125 34.421875 6.203125 
Q 39.59375 6.203125 44.453125 7.46875 
Q 49.3125 8.734375 54.109375 11.28125 
L 54.109375 2.78125 
Q 49.265625 0.734375 44.1875 -0.34375 
Q 39.109375 -1.421875 33.890625 -1.421875 
Q 20.796875 -1.421875 13.15625 6.1875 
Q 5.515625 13.8125 5.515625 26.8125 
Q 5.515625 40.234375 12.765625 48.109375 
Q 20.015625 56 32.328125 56 
Q 43.359375 56 49.78125 48.890625 
Q 56.203125 41.796875 56.203125 29.59375 
z
M 47.21875 32.234375 
Q 47.125 39.59375 43.09375 43.984375 
Q 39.0625 48.390625 32.421875 48.390625 
Q 24.90625 48.390625 20.390625 44.140625 
Q 15.875 39.890625 15.1875 32.171875 
z
" id="DejaVuSans-101"/>
      <path id="DejaVuSans-32"/>
      <path d="M 8.59375 75.984375 
L 29.296875 75.984375 
L 29.296875 69 
L 17.578125 69 
L 17.578125 -6.203125 
L 29.296875 -6.203125 
L 29.296875 -13.1875 
L 8.59375 -13.1875 
z
" id="DejaVuSans-91"/>
      <path d="M 44.28125 53.078125 
L 44.28125 44.578125 
Q 40.484375 46.53125 36.375 47.5 
Q 32.28125 48.484375 27.875 48.484375 
Q 21.1875 48.484375 17.84375 46.4375 
Q 14.5 44.390625 14.5 40.28125 
Q 14.5 37.15625 16.890625 35.375 
Q 19.28125 33.59375 26.515625 31.984375 
L 29.59375 31.296875 
Q 39.15625 29.25 43.1875 25.515625 
Q 47.21875 21.78125 47.21875 15.09375 
Q 47.21875 7.46875 41.1875 3.015625 
Q 35.15625 -1.421875 24.609375 -1.421875 
Q 20.21875 -1.421875 15.453125 -0.5625 
Q 10.6875 0.296875 5.421875 2 
L 5.421875 11.28125 
Q 10.40625 8.6875 15.234375 7.390625 
Q 20.0625 6.109375 24.8125 6.109375 
Q 31.15625 6.109375 34.5625 8.28125 
Q 37.984375 10.453125 37.984375 14.40625 
Q 37.984375 18.0625 35.515625 20.015625 
Q 33.0625 21.96875 24.703125 23.78125 
L 21.578125 24.515625 
Q 13.234375 26.265625 9.515625 29.90625 
Q 5.8125 33.546875 5.8125 39.890625 
Q 5.8125 47.609375 11.28125 51.796875 
Q 16.75 56 26.8125 56 
Q 31.78125 56 36.171875 55.265625 
Q 40.578125 54.546875 44.28125 53.078125 
z
" id="DejaVuSans-115"/>
      <path d="M 48.78125 52.59375 
L 48.78125 44.1875 
Q 44.96875 46.296875 41.140625 47.34375 
Q 37.3125 48.390625 33.40625 48.390625 
Q 24.65625 48.390625 19.8125 42.84375 
Q 14.984375 37.3125 14.984375 27.296875 
Q 14.984375 17.28125 19.8125 11.734375 
Q 24.65625 6.203125 33.40625 6.203125 
Q 37.3125 6.203125 41.140625 7.25 
Q 44.96875 8.296875 48.78125 10.40625 
L 48.78125 2.09375 
Q 45.015625 0.34375 40.984375 -0.53125 
Q 36.96875 -1.421875 32.421875 -1.421875 
Q 20.0625 -1.421875 12.78125 6.34375 
Q 5.515625 14.109375 5.515625 27.296875 
Q 5.515625 40.671875 12.859375 48.328125 
Q 20.21875 56 33.015625 56 
Q 37.15625 56 41.109375 55.140625 
Q 45.0625 54.296875 48.78125 52.59375 
z
" id="DejaVuSans-99"/>
      <path d="M 30.421875 75.984375 
L 30.421875 -13.1875 
L 9.71875 -13.1875 
L 9.71875 -6.203125 
L 21.390625 -6.203125 
L 21.390625 69 
L 9.71875 69 
L 9.71875 75.984375 
z
" id="DejaVuSans-93"/>
     </defs>
     <g transform="translate(293.801094 271.057812)scale(0.18 -0.18)">
      <use xlink:href="#DejaVuSans-84"/>
      <use x="61.037109" xlink:href="#DejaVuSans-105"/>
      <use x="88.820312" xlink:href="#DejaVuSans-109"/>
      <use x="186.232422" xlink:href="#DejaVuSans-101"/>
      <use x="247.755859" xlink:href="#DejaVuSans-32"/>
      <use x="279.542969" xlink:href="#DejaVuSans-91"/>
      <use x="318.556641" xlink:href="#DejaVuSans-115"/>
      <use x="370.65625" xlink:href="#DejaVuSans-101"/>
      <use x="432.179688" xlink:href="#DejaVuSans-99"/>
      <use x="487.160156" xlink:href="#DejaVuSans-93"/>
     </g>
    </g>
   </g>
   <g id="matplotlib.axis_2">
    <g id="ytick_1">
     <g id="line2d_8">
      <defs>
       <path d="M 0 0 
L -3.5 0 
" id="mf5b13acf68" style="stroke:#000000;stroke-width:0.8;"/>
      </defs>
      <g>
       <use style="stroke:#000000;stroke-width:0.8;" x="62.156563" xlink:href="#mf5b13acf68" y="217.731646"/>
      </g>
     </g>
     <g id="text_9">
      <!-- −4 -->
      <defs>
       <path d="M 10.59375 35.5 
L 73.1875 35.5 
L 73.1875 27.203125 
L 10.59375 27.203125 
z
" id="DejaVuSans-8722"/>
      </defs>
      <g transform="translate(28.620625 224.570239)scale(0.18 -0.18)">
       <use xlink:href="#DejaVuSans-8722"/>
       <use x="83.789062" xlink:href="#DejaVuSans-52"/>
      </g>
     </g>
    </g>
    <g id="ytick_2">
     <g id="line2d_9">
      <g>
       <use style="stroke:#000000;stroke-width:0.8;" x="62.156563" xlink:href="#mf5b13acf68" y="161.589873"/>
      </g>
     </g>
     <g id="text_10">
      <!-- −2 -->
      <g transform="translate(28.620625 168.428467)scale(0.18 -0.18)">
       <use xlink:href="#DejaVuSans-8722"/>
       <use x="83.789062" xlink:href="#DejaVuSans-50"/>
      </g>
     </g>
    </g>
    <g id="ytick_3">
     <g id="line2d_10">
      <g>
       <use style="stroke:#000000;stroke-width:0.8;" x="62.156563" xlink:href="#mf5b13acf68" y="105.448101"/>
      </g>
     </g>
     <g id="text_11">
      <!-- 0 -->
      <defs>
       <path d="M 31.78125 66.40625 
Q 24.171875 66.40625 20.328125 58.90625 
Q 16.5 51.421875 16.5 36.375 
Q 16.5 21.390625 20.328125 13.890625 
Q 24.171875 6.390625 31.78125 6.390625 
Q 39.453125 6.390625 43.28125 13.890625 
Q 47.125 21.390625 47.125 36.375 
Q 47.125 51.421875 43.28125 58.90625 
Q 39.453125 66.40625 31.78125 66.40625 
z
M 31.78125 74.21875 
Q 44.046875 74.21875 50.515625 64.515625 
Q 56.984375 54.828125 56.984375 36.375 
Q 56.984375 17.96875 50.515625 8.265625 
Q 44.046875 -1.421875 31.78125 -1.421875 
Q 19.53125 -1.421875 13.0625 8.265625 
Q 6.59375 17.96875 6.59375 36.375 
Q 6.59375 54.828125 13.0625 64.515625 
Q 19.53125 74.21875 31.78125 74.21875 
z
" id="DejaVuSans-48"/>
      </defs>
      <g transform="translate(43.704063 112.286695)scale(0.18 -0.18)">
       <use xlink:href="#DejaVuSans-48"/>
      </g>
     </g>
    </g>
    <g id="ytick_4">
     <g id="line2d_11">
      <g>
       <use style="stroke:#000000;stroke-width:0.8;" x="62.156563" xlink:href="#mf5b13acf68" y="49.306329"/>
      </g>
     </g>
     <g id="text_12">
      <!-- 2 -->
      <g transform="translate(43.704063 56.144923)scale(0.18 -0.18)">
       <use xlink:href="#DejaVuSans-50"/>
      </g>
     </g>
    </g>
    <g id="text_13">
     <!-- Lateral Error [m] -->
     <defs>
      <path d="M 9.8125 72.90625 
L 19.671875 72.90625 
L 19.671875 8.296875 
L 55.171875 8.296875 
L 55.171875 0 
L 9.8125 0 
z
" id="DejaVuSans-76"/>
      <path d="M 34.28125 27.484375 
Q 23.390625 27.484375 19.1875 25 
Q 14.984375 22.515625 14.984375 16.5 
Q 14.984375 11.71875 18.140625 8.90625 
Q 21.296875 6.109375 26.703125 6.109375 
Q 34.1875 6.109375 38.703125 11.40625 
Q 43.21875 16.703125 43.21875 25.484375 
L 43.21875 27.484375 
z
M 52.203125 31.203125 
L 52.203125 0 
L 43.21875 0 
L 43.21875 8.296875 
Q 40.140625 3.328125 35.546875 0.953125 
Q 30.953125 -1.421875 24.3125 -1.421875 
Q 15.921875 -1.421875 10.953125 3.296875 
Q 6 8.015625 6 15.921875 
Q 6 25.140625 12.171875 29.828125 
Q 18.359375 34.515625 30.609375 34.515625 
L 43.21875 34.515625 
L 43.21875 35.40625 
Q 43.21875 41.609375 39.140625 45 
Q 35.0625 48.390625 27.6875 48.390625 
Q 23 48.390625 18.546875 47.265625 
Q 14.109375 46.140625 10.015625 43.890625 
L 10.015625 52.203125 
Q 14.9375 54.109375 19.578125 55.046875 
Q 24.21875 56 28.609375 56 
Q 40.484375 56 46.34375 49.84375 
Q 52.203125 43.703125 52.203125 31.203125 
z
" id="DejaVuSans-97"/>
      <path d="M 18.3125 70.21875 
L 18.3125 54.6875 
L 36.8125 54.6875 
L 36.8125 47.703125 
L 18.3125 47.703125 
L 18.3125 18.015625 
Q 18.3125 11.328125 20.140625 9.421875 
Q 21.96875 7.515625 27.59375 7.515625 
L 36.8125 7.515625 
L 36.8125 0 
L 27.59375 0 
Q 17.1875 0 13.234375 3.875 
Q 9.28125 7.765625 9.28125 18.015625 
L 9.28125 47.703125 
L 2.6875 47.703125 
L 2.6875 54.6875 
L 9.28125 54.6875 
L 9.28125 70.21875 
z
" id="DejaVuSans-116"/>
      <path d="M 41.109375 46.296875 
Q 39.59375 47.171875 37.8125 47.578125 
Q 36.03125 48 33.890625 48 
Q 26.265625 48 22.1875 43.046875 
Q 18.109375 38.09375 18.109375 28.8125 
L 18.109375 0 
L 9.078125 0 
L 9.078125 54.6875 
L 18.109375 54.6875 
L 18.109375 46.1875 
Q 20.953125 51.171875 25.484375 53.578125 
Q 30.03125 56 36.53125 56 
Q 37.453125 56 38.578125 55.875 
Q 39.703125 55.765625 41.0625 55.515625 
z
" id="DejaVuSans-114"/>
      <path d="M 9.421875 75.984375 
L 18.40625 75.984375 
L 18.40625 0 
L 9.421875 0 
z
" id="DejaVuSans-108"/>
      <path d="M 9.8125 72.90625 
L 55.90625 72.90625 
L 55.90625 64.59375 
L 19.671875 64.59375 
L 19.671875 43.015625 
L 54.390625 43.015625 
L 54.390625 34.71875 
L 19.671875 34.71875 
L 19.671875 8.296875 
L 56.78125 8.296875 
L 56.78125 0 
L 9.8125 0 
z
" id="DejaVuSans-69"/>
      <path d="M 30.609375 48.390625 
Q 23.390625 48.390625 19.1875 42.75 
Q 14.984375 37.109375 14.984375 27.296875 
Q 14.984375 17.484375 19.15625 11.84375 
Q 23.34375 6.203125 30.609375 6.203125 
Q 37.796875 6.203125 41.984375 11.859375 
Q 46.1875 17.53125 46.1875 27.296875 
Q 46.1875 37.015625 41.984375 42.703125 
Q 37.796875 48.390625 30.609375 48.390625 
z
M 30.609375 56 
Q 42.328125 56 49.015625 48.375 
Q 55.71875 40.765625 55.71875 27.296875 
Q 55.71875 13.875 49.015625 6.21875 
Q 42.328125 -1.421875 30.609375 -1.421875 
Q 18.84375 -1.421875 12.171875 6.21875 
Q 5.515625 13.875 5.515625 27.296875 
Q 5.515625 40.765625 12.171875 48.375 
Q 18.84375 56 30.609375 56 
z
" id="DejaVuSans-111"/>
     </defs>
     <g transform="translate(20.877188 193.190625)rotate(-90)scale(0.18 -0.18)">
      <use xlink:href="#DejaVuSans-76"/>
      <use x="55.712891" xlink:href="#DejaVuSans-97"/>
      <use x="116.992188" xlink:href="#DejaVuSans-116"/>
      <use x="156.201172" xlink:href="#DejaVuSans-101"/>
      <use x="217.724609" xlink:href="#DejaVuSans-114"/>
      <use x="258.837891" xlink:href="#DejaVuSans-97"/>
      <use x="320.117188" xlink:href="#DejaVuSans-108"/>
      <use x="347.900391" xlink:href="#DejaVuSans-32"/>
      <use x="379.6875" xlink:href="#DejaVuSans-69"/>
      <use x="442.871094" xlink:href="#DejaVuSans-114"/>
      <use x="483.96875" xlink:href="#DejaVuSans-114"/>
      <use x="525.050781" xlink:href="#DejaVuSans-111"/>
      <use x="586.232422" xlink:href="#DejaVuSans-114"/>
      <use x="627.345703" xlink:href="#DejaVuSans-32"/>
      <use x="659.132812" xlink:href="#DejaVuSans-91"/>
      <use x="698.146484" xlink:href="#DejaVuSans-109"/>
      <use x="795.558594" xlink:href="#DejaVuSans-93"/>
     </g>
    </g>
   </g>
   <g id="line2d_12">
    <path clip-path="url(#pc5ac42a5ab)" d="M 62.156562 105.448101 
L 66.730333 105.448101 
L 71.304103 105.448101 
L 75.877874 105.448101 
L 80.451644 105.448101 
L 85.025415 105.448101 
L 89.599185 105.448101 
L 94.172956 105.448101 
L 98.746726 105.448101 
L 103.320497 105.448101 
L 107.894267 105.448101 
L 112.468038 105.448101 
L 117.041808 105.448101 
L 121.615579 105.448101 
L 126.189349 105.448101 
L 130.76312 105.448101 
L 135.33689 105.448101 
L 139.910661 105.448101 
L 144.484431 105.448101 
L 149.058202 105.448101 
L 153.631972 105.448101 
L 158.205743 105.448101 
L 162.779513 105.448101 
L 167.353284 105.448101 
L 171.927054 105.448101 
L 176.500825 105.448101 
L 181.074595 105.448101 
L 185.648366 105.448101 
L 190.222136 105.448101 
L 194.795907 105.448101 
L 199.369677 105.448101 
L 203.943448 105.448101 
L 208.517218 105.448101 
L 213.090989 105.448101 
L 217.664759 105.448101 
L 222.23853 105.448101 
L 226.8123 105.448101 
L 231.386071 105.448101 
L 235.959841 105.448101 
L 240.533612 105.448101 
L 245.107382 105.448101 
L 249.681153 105.448101 
L 254.254923 105.448101 
L 258.828694 105.448101 
L 263.402464 105.448101 
L 267.976235 105.448101 
L 272.550005 105.448101 
L 277.123776 105.448101 
L 281.697546 105.448101 
L 286.271317 105.448101 
L 290.845087 105.448101 
L 295.418858 105.448101 
L 299.992628 105.448101 
L 304.566399 105.448101 
L 309.140169 105.448101 
L 313.71394 105.448101 
L 318.28771 105.448101 
L 322.861481 105.448101 
L 327.435251 105.448101 
L 332.009022 105.448101 
L 336.582792 105.448101 
L 341.156562 105.448101 
L 345.730333 105.448101 
L 350.304103 105.448101 
L 354.877874 105.448101 
L 359.451644 105.448101 
L 364.025415 105.448101 
L 368.599185 105.448101 
L 373.172956 105.448101 
L 377.746726 105.448101 
L 382.320497 105.448101 
L 386.894267 105.448101 
L 391.468038 105.448101 
L 396.041808 105.448101 
L 400.615579 105.448101 
L 405.189349 105.448101 
L 409.76312 105.448101 
L 414.33689 105.448101 
L 418.910661 105.448101 
L 423.484431 105.448101 
L 428.058202 105.448101 
L 432.631972 105.448101 
L 437.205743 105.448101 
L 441.779513 105.448101 
L 446.353284 105.448101 
L 450.927054 105.448101 
L 455.500825 105.448101 
L 460.074595 105.448101 
L 464.648366 105.448101 
L 469.222136 105.448101 
L 473.795907 105.448101 
L 478.369677 105.448101 
L 482.943448 105.448101 
L 487.517218 105.448101 
L 492.090989 105.448101 
L 496.664759 105.448101 
L 501.23853 105.448101 
L 505.8123 105.448101 
L 510.386071 105.448101 
L 514.959841 105.448101 
L 519.533612 105.448101 
L 524.107382 105.448101 
L 528.681153 105.448101 
L 533.254923 105.448101 
L 537.828694 105.448101 
L 542.402464 105.448101 
L 546.976235 105.448101 
L 551.550005 105.448101 
L 556.123776 105.448101 
L 560.697546 105.448101 
L 565.271317 105.448101 
L 569.845087 105.448101 
L 574.418858 105.448101 
L 578.992628 105.448101 
L 583.566399 105.448101 
L 588.140169 105.448101 
L 592.71394 105.448101 
L 597.28771 105.448101 
L 601.861481 105.448101 
L 606.435251 105.448101 
L 611.009022 105.448101 
L 615.582792 105.448101 
" style="fill:none;stroke:#808080;stroke-dasharray:5.55,2.4;stroke-dashoffset:0;stroke-width:1.5;"/>
   </g>
   <g id="line2d_13">
    <path clip-path="url(#pc5ac42a5ab)" d="M 62.156562 105.454762 
L 66.730333 105.457225 
L 71.304103 105.459259 
L 75.877874 105.458295 
L 80.451644 105.458295 
L 85.025415 105.457332 
L 89.599185 105.459259 
L 94.172956 105.461294 
L 98.746726 105.461936 
L 103.320497 105.461401 
L 107.894267 105.461936 
L 112.468038 105.463007 
L 117.041808 105.455725 
L 121.615579 105.413 
L 126.189349 105.413 
L 130.76312 105.629091 
L 135.33689 105.902257 
L 139.910661 106.759876 
L 144.484431 107.847615 
L 149.058202 108.02869 
L 153.631972 109.028621 
L 158.205743 109.028621 
L 162.779513 111.228512 
L 167.353284 113.293267 
L 171.927054 114.272852 
L 176.500825 117.160209 
L 181.074595 119.587436 
L 185.648366 121.329016 
L 190.222136 124.125675 
L 194.795907 125.106545 
L 199.369677 127.141102 
L 203.943448 129.81965 
L 208.517218 133.230745 
L 213.090989 133.820015 
L 217.664759 138.74482 
L 222.23853 143.35791 
L 226.8123 146.119338 
L 231.386071 151.194487 
L 235.959841 157.367974 
L 240.533612 158.9545 
L 245.107382 158.9545 
L 249.681153 167.706521 
L 254.254923 167.706521 
L 258.828694 173.902495 
L 263.402464 176.888903 
L 267.976235 179.786969 
L 272.550005 179.786969 
L 277.123776 189.234379 
L 281.697546 190.496875 
L 286.271317 192.955798 
L 290.845087 195.325842 
L 295.418858 197.605616 
L 299.992628 201.8905 
L 304.566399 204.859132 
L 309.140169 205.333184 
L 313.71394 207.613601 
L 318.28771 207.613601 
L 322.861481 213.5408 
L 327.435251 214.225803 
L 332.009022 215.520745 
L 336.582792 217.544379 
L 341.156562 219.256198 
L 345.730333 220.093579 
L 350.304103 220.995423 
L 354.877874 221.736001 
L 359.451644 221.987001 
L 364.025415 222.501102 
L 368.599185 223.016808 
L 373.172956 223.046791 
L 377.746726 223.046791 
L 382.320497 222.923647 
L 386.894267 222.62371 
L 391.468038 221.931104 
L 396.041808 221.806247 
L 400.615579 220.920679 
L 405.189349 219.377843 
L 409.76312 219.377843 
L 414.33689 216.291842 
L 418.910661 214.404095 
L 423.484431 214.404095 
L 428.058202 211.913797 
L 432.631972 211.145591 
L 437.205743 208.260376 
L 441.779513 205.071262 
L 446.353284 204.591106 
L 450.927054 199.454065 
L 455.500825 196.082804 
L 460.074595 194.911328 
L 464.648366 193.109782 
L 469.222136 188.048554 
L 473.795907 185.379109 
L 478.369677 181.913937 
L 482.943448 177.570373 
L 487.517218 176.826903 
L 492.090989 169.889493 
L 496.664759 165.021977 
L 501.23853 164.192199 
L 505.8123 156.490116 
L 510.386071 151.12574 
L 514.959841 147.449831 
L 519.533612 147.449831 
L 524.107382 143.696074 
L 528.681153 136.942203 
L 533.254923 129.960034 
L 537.828694 124.83702 
L 542.402464 122.756739 
L 546.976235 116.412563 
L 551.550005 107.718367 
L 556.123776 105.504019 
L 560.697546 95.345371 
L 565.271317 87.232523 
L 569.845087 87.232523 
L 574.418858 83.701282 
L 578.992628 77.746134 
L 583.566399 70.488655 
L 588.140169 60.632405 
L 592.71394 58.137717 
L 597.28771 54.37368 
L 601.861481 44.211498 
L 606.435251 35.179565 
L 611.009022 32.576725 
L 615.582792 23.36286 
" style="fill:none;stroke:#1f77b4;stroke-linecap:square;stroke-width:1.5;"/>
   </g>
   <g id="line2d_14">
    <path clip-path="url(#pc5ac42a5ab)" d="M 107.894267 228.96 
L 107.894267 7.2 
" style="fill:none;stroke:#ff0000;stroke-dasharray:7.4,3.2;stroke-dashoffset:0;stroke-width:2;"/>
   </g>
   <g id="line2d_15">
    <path clip-path="url(#pc5ac42a5ab)" d="M 240.533612 228.96 
L 240.533612 7.2 
" style="fill:none;stroke:#008000;stroke-dasharray:2,3.3;stroke-dashoffset:0;stroke-width:2;"/>
   </g>
   <g id="patch_3">
    <path d="M 62.156563 228.96 
L 62.156563 7.2 
" style="fill:none;stroke:#000000;stroke-linecap:square;stroke-linejoin:miter;stroke-width:0.8;"/>
   </g>
   <g id="patch_4">
    <path d="M 620.156563 228.96 
L 620.156563 7.2 
" style="fill:none;stroke:#000000;stroke-linecap:square;stroke-linejoin:miter;stroke-width:0.8;"/>
   </g>
   <g id="patch_5">
    <path d="M 62.156562 228.96 
L 620.156562 228.96 
" style="fill:none;stroke:#000000;stroke-linecap:square;stroke-linejoin:miter;stroke-width:0.8;"/>
   </g>
   <g id="patch_6">
    <path d="M 62.156562 7.2 
L 620.156562 7.2 
" style="fill:none;stroke:#000000;stroke-linecap:square;stroke-linejoin:miter;stroke-width:0.8;"/>
   </g>
  </g>
 </g>
 <defs>
  <clipPath id="pc5ac42a5ab">
   <rect height="221.76" width="558" x="62.156563" y="7.2"/>
  </clipPath>
 </defs>
</svg>
